{"asset":{"version":"2.0","generator":"Blockbench 4.12.4 glTF exporter"},"scenes":[{"nodes":[28],"name":"blockbench_export"}],"scene":0,"nodes":[{"translation":[0.75,0.0625,0],"name":"gun2"},{"translation":[-0.0625,-0.0625,0],"name":"cube","mesh":0},{"name":"cube","mesh":1},{"name":"cube","mesh":2},{"name":"cube","mesh":3},{"translation":[-0.0625,-0.0625,0],"name":"cube","mesh":4},{"translation":[-0.375,0,0],"name":"arm2","children":[5]},{"translation":[-0.375,0,0],"name":"subarm","children":[3,4,6]},{"translation":[0.0625,0.0625,0],"name":"arm","children":[1,2,7]},{"translation":[-0.09649837872231837,0.26250000000000007,-0.05728475845611651],"name":"gunarm3"},{"translation":[0.07708462062819998,-0.2179206759180337,-4.956352788505163e-19],"name":"cube","mesh":5},{"rotation":[0,0,0.18223552549214747,0.9832549075639546],"translation":[0.07708462062819998,-0.0804206759180338,-4.956352788505163e-19],"name":"cube","mesh":6},{"translation":[0.008334620628200229,-0.06167067591803381,-4.956352788505163e-19],"name":"cube","mesh":7},{"translation":[0.008334620628200229,-0.06167067591803381,-0.006250000000000001],"name":"cube","mesh":8},{"translation":[0.008334620628200229,-0.06167067591803381,-0.006250000000000001],"name":"cube","mesh":9},{"rotation":[6.123233995736771e-17,1,6.123233995736771e-17,-8.916478666520786e-16],"translation":[-0.07181230275303274,-0.04426660145094427,-4.956352788505163e-19],"name":"cube","mesh":10},{"rotation":[0.13917310096006238,-0.9902680687415707,-7.557292567325067e-17,-9.775678708299185e-17],"translation":[-0.07181230275303274,-0.04426660145094427,-4.956352788505163e-19],"name":"cube","mesh":11},{"rotation":[0,-0.3420201433256687,0,0.9396926207859084],"translation":[0.0027483787223184786,0,0.0010347584561165302],"name":"cube","mesh":12},{"rotation":[0,-0.3420201433256687,0,0.9396926207859084],"translation":[0.023308799422689264,0,-0.0017443354293860958],"name":"cube","mesh":13},{"rotation":[0,0.3826834323650898,0,0.9238795325112867],"translation":[-0.09389222436438138,0,-0.049546185444850996],"name":"gunarmpart","children":[18]},{"translation":[-0.08816375809411814,0.044579324081966604,-0.05728475845611651],"name":"gunarm","children":[17,19]},{"rotation":[0,0.3826834323650898,0,0.9238795325112867],"translation":[-0.13139222436438136,0,-0.08704618544485103],"name":"gunarmpart3"},{"rotation":[0,0.3420201433256687,0,0.9396926207859084],"translation":[0.0027483787223184786,0,-0.0010347584561165302],"name":"cube","mesh":14},{"rotation":[0,0.3420201433256687,0,0.9396926207859084],"translation":[0.014469964657857548,0,0.0017443354293859153],"name":"cube","mesh":15},{"rotation":[0,-0.3826834323650898,0,0.9238795325112867],"translation":[-0.08764222436438152,0,0.05579618544485103],"name":"gunarmpart2","children":[23]},{"translation":[-0.08816375809411814,0.044579324081966604,0.05728475845611651],"name":"gunarm2","children":[21,22,24]},{"translation":[-0.8145846206282,0.16792067591803372,4.956352788505163e-19],"name":"gun","children":[9,10,11,12,13,14,15,16,20,25]},{"name":"all","children":[8,26]},{"children":[0,27]}],"bufferViews":[{"buffer":0,"byteOffset":0,"byteLength":288,"target":34962,"byteStride":12},{"buffer":0,"byteOffset":288,"byteLength":288,"target":34962,"byteStride":12},{"buffer":0,"byteOffset":576,"byteLength":192,"target":34962,"byteStride":8},{"buffer":0,"byteOffset":768,"byteLength":72,"target":34963},{"buffer":0,"byteOffset":840,"byteLength":288,"target":34962,"byteStride":12},{"buffer":0,"byteOffset":1128,"byteLength":288,"target":34962,"byteStride":12},{"buffer":0,"byteOffset":1416,"byteLength":192,"target":34962,"byteStride":8},{"buffer":0,"byteOffset":1608,"byteLength":72,"target":34963},{"buffer":0,"byteOffset":1680,"byteLength":288,"target":34962,"byteStride":12},{"buffer":0,"byteOffset":1968,"byteLength":288,"target":34962,"byteStride":12},{"buffer":0,"byteOffset":2256,"byteLength":192,"target":34962,"byteStride":8},{"buffer":0,"byteOffset":2448,"byteLength":72,"target":34963},{"buffer":0,"byteOffset":2520,"byteLength":288,"target":34962,"byteStride":12},{"buffer":0,"byteOffset":2808,"byteLength":288,"target":34962,"byteStride":12},{"buffer":0,"byteOffset":3096,"byteLength":192,"target":34962,"byteStride":8},{"buffer":0,"byteOffset":3288,"byteLength":72,"target":34963},{"buffer":0,"byteOffset":3360,"byteLength":288,"target":34962,"byteStride":12},{"buffer":0,"byteOffset":3648,"byteLength":288,"target":34962,"byteStride":12},{"buffer":0,"byteOffset":3936,"byteLength":192,"target":34962,"byteStride":8},{"buffer":0,"byteOffset":4128,"byteLength":72,"target":34963},{"buffer":0,"byteOffset":4200,"byteLength":288,"target":34962,"byteStride":12},{"buffer":0,"byteOffset":4488,"byteLength":288,"target":34962,"byteStride":12},{"buffer":0,"byteOffset":4776,"byteLength":192,"target":34962,"byteStride":8},{"buffer":0,"byteOffset":4968,"byteLength":72,"target":34963},{"buffer":0,"byteOffset":5040,"byteLength":288,"target":34962,"byteStride":12},{"buffer":0,"byteOffset":5328,"byteLength":288,"target":34962,"byteStride":12},{"buffer":0,"byteOffset":5616,"byteLength":192,"target":34962,"byteStride":8},{"buffer":0,"byteOffset":5808,"byteLength":72,"target":34963},{"buffer":0,"byteOffset":5880,"byteLength":288,"target":34962,"byteStride":12},{"buffer":0,"byteOffset":6168,"byteLength":288,"target":34962,"byteStride":12},{"buffer":0,"byteOffset":6456,"byteLength":192,"target":34962,"byteStride":8},{"buffer":0,"byteOffset":6648,"byteLength":72,"target":34963},{"buffer":0,"byteOffset":6720,"byteLength":288,"target":34962,"byteStride":12},{"buffer":0,"byteOffset":7008,"byteLength":288,"target":34962,"byteStride":12},{"buffer":0,"byteOffset":7296,"byteLength":192,"target":34962,"byteStride":8},{"buffer":0,"byteOffset":7488,"byteLength":72,"target":34963},{"buffer":0,"byteOffset":7560,"byteLength":288,"target":34962,"byteStride":12},{"buffer":0,"byteOffset":7848,"byteLength":288,"target":34962,"byteStride":12},{"buffer":0,"byteOffset":8136,"byteLength":192,"target":34962,"byteStride":8},{"buffer":0,"byteOffset":8328,"byteLength":72,"target":34963},{"buffer":0,"byteOffset":8400,"byteLength":288,"target":34962,"byteStride":12},{"buffer":0,"byteOffset":8688,"byteLength":288,"target":34962,"byteStride":12},{"buffer":0,"byteOffset":8976,"byteLength":192,"target":34962,"byteStride":8},{"buffer":0,"byteOffset":9168,"byteLength":72,"target":34963},{"buffer":0,"byteOffset":9240,"byteLength":288,"target":34962,"byteStride":12},{"buffer":0,"byteOffset":9528,"byteLength":288,"target":34962,"byteStride":12},{"buffer":0,"byteOffset":9816,"byteLength":192,"target":34962,"byteStride":8},{"buffer":0,"byteOffset":10008,"byteLength":72,"target":34963},{"buffer":0,"byteOffset":10080,"byteLength":288,"target":34962,"byteStride":12},{"buffer":0,"byteOffset":10368,"byteLength":288,"target":34962,"byteStride":12},{"buffer":0,"byteOffset":10656,"byteLength":192,"target":34962,"byteStride":8},{"buffer":0,"byteOffset":10848,"byteLength":72,"target":34963},{"buffer":0,"byteOffset":10920,"byteLength":288,"target":34962,"byteStride":12},{"buffer":0,"byteOffset":11208,"byteLength":288,"target":34962,"byteStride":12},{"buffer":0,"byteOffset":11496,"byteLength":192,"target":34962,"byteStride":8},{"buffer":0,"byteOffset":11688,"byteLength":72,"target":34963},{"buffer":0,"byteOffset":11760,"byteLength":288,"target":34962,"byteStride":12},{"buffer":0,"byteOffset":12048,"byteLength":288,"target":34962,"byteStride":12},{"buffer":0,"byteOffset":12336,"byteLength":192,"target":34962,"byteStride":8},{"buffer":0,"byteOffset":12528,"byteLength":72,"target":34963},{"buffer":0,"byteOffset":12600,"byteLength":288,"target":34962,"byteStride":12},{"buffer":0,"byteOffset":12888,"byteLength":288,"target":34962,"byteStride":12},{"buffer":0,"byteOffset":13176,"byteLength":192,"target":34962,"byteStride":8},{"buffer":0,"byteOffset":13368,"byteLength":72,"target":34963},{"buffer":0,"byteOffset":13440,"byteLength":12},{"buffer":0,"byteOffset":13452,"byteLength":48},{"buffer":0,"byteOffset":13500,"byteLength":12},{"buffer":0,"byteOffset":13512,"byteLength":36},{"buffer":0,"byteOffset":13548,"byteLength":12},{"buffer":0,"byteOffset":13560,"byteLength":48},{"buffer":0,"byteOffset":13608,"byteLength":12},{"buffer":0,"byteOffset":13620,"byteLength":48},{"buffer":0,"byteOffset":13668,"byteLength":12},{"buffer":0,"byteOffset":13680,"byteLength":36},{"buffer":0,"byteOffset":13716,"byteLength":8},{"buffer":0,"byteOffset":13724,"byteLength":32},{"buffer":0,"byteOffset":13756,"byteLength":8},{"buffer":0,"byteOffset":13764,"byteLength":24},{"buffer":0,"byteOffset":13788,"byteLength":8},{"buffer":0,"byteOffset":13796,"byteLength":32},{"buffer":0,"byteOffset":13828,"byteLength":12},{"buffer":0,"byteOffset":13840,"byteLength":36},{"buffer":0,"byteOffset":13876,"byteLength":12},{"buffer":0,"byteOffset":13888,"byteLength":48},{"buffer":0,"byteOffset":13936,"byteLength":12},{"buffer":0,"byteOffset":13948,"byteLength":36},{"buffer":0,"byteOffset":13984,"byteLength":12},{"buffer":0,"byteOffset":13996,"byteLength":48},{"buffer":0,"byteOffset":14044,"byteLength":12},{"buffer":0,"byteOffset":14056,"byteLength":48},{"buffer":0,"byteOffset":14104,"byteLength":12},{"buffer":0,"byteOffset":14116,"byteLength":48},{"buffer":0,"byteOffset":14164,"byteLength":12},{"buffer":0,"byteOffset":14176,"byteLength":48},{"buffer":0,"byteOffset":14224,"byteLength":8},{"buffer":0,"byteOffset":14232,"byteLength":24}],"buffers":[{"byteLength":14256,"uri":"data:application/octet-stream;base64,"}],"accessors":[{"bufferView":0,"componentType":5126,"count":24,"max":[0.0625,0.125,0.0625],"min":[-0.3125,0,-0.0625],"type":"VEC3"},{"bufferView":1,"componentType":5126,"count":24,"max":[1,1,1],"min":[-1,-1,-1],"type":"VEC3"},{"bufferView":2,"componentType":5126,"count":24,"max":[0.4375,0.4375],"min":[0,0],"type":"VEC2"},{"bufferView":3,"componentType":5123,"count":36,"max":[23],"min":[0],"type":"SCALAR"},{"bufferView":4,"componentType":5126,"count":24,"max":[-0.3125,0.07500000298023224,0.07500000298023224],"min":[-0.4375,-0.07500000298023224,-0.07500000298023224],"type":"VEC3"},{"bufferView":5,"componentType":5126,"count":24,"max":[1,1,1],"min":[-1,-1,-1],"type":"VEC3"},{"bufferView":6,"componentType":5126,"count":24,"max":[0.40625,0.421875],"min":[0,0.21875],"type":"VEC2"},{"bufferView":7,"componentType":5123,"count":36,"max":[23],"min":[0],"type":"SCALAR"},{"bufferView":8,"componentType":5126,"count":24,"max":[0,0.0625,0.0625],"min":[-0.3125,-0.0625,-0.0625],"type":"VEC3"},{"bufferView":9,"componentType":5126,"count":24,"max":[1,1,1],"min":[-1,-1,-1],"type":"VEC3"},{"bufferView":10,"componentType":5126,"count":24,"max":[0.34375,0.46875],"min":[0,0],"type":"VEC2"},{"bufferView":11,"componentType":5123,"count":36,"max":[23],"min":[0],"type":"SCALAR"},{"bufferView":12,"componentType":5126,"count":24,"max":[-0.3125,0.07500000298023224,0.07500000298023224],"min":[-0.375,-0.07500000298023224,-0.07500000298023224],"type":"VEC3"},{"bufferView":13,"componentType":5126,"count":24,"max":[1,1,1],"min":[-1,-1,-1],"type":"VEC3"},{"bufferView":14,"componentType":5126,"count":24,"max":[0.46875,0.546875],"min":[0,0],"type":"VEC2"},{"bufferView":15,"componentType":5123,"count":36,"max":[23],"min":[0],"type":"SCALAR"},{"bufferView":16,"componentType":5126,"count":24,"max":[0.0625,0.125,0.0625],"min":[-0.0625,0,-0.0625],"type":"VEC3"},{"bufferView":17,"componentType":5126,"count":24,"max":[1,1,1],"min":[-1,-1,-1],"type":"VEC3"},{"bufferView":18,"componentType":5126,"count":24,"max":[0.5,0.5],"min":[0.125,0],"type":"VEC2"},{"bufferView":19,"componentType":5123,"count":36,"max":[23],"min":[0],"type":"SCALAR"},{"bufferView":20,"componentType":5126,"count":24,"max":[0.0625,0.125,0.03750000149011612],"min":[-0.05000000074505806,0.0625,-0.03750000149011612],"type":"VEC3"},{"bufferView":21,"componentType":5126,"count":24,"max":[1,1,1],"min":[-1,-1,-1],"type":"VEC3"},{"bufferView":22,"componentType":5126,"count":24,"max":[0.53125,0.5],"min":[0.125,0.15625],"type":"VEC2"},{"bufferView":23,"componentType":5123,"count":36,"max":[23],"min":[0],"type":"SCALAR"},{"bufferView":24,"componentType":5126,"count":24,"max":[0.03750000149011612,0.125,0.03125],"min":[-0.03750000149011612,-0.03125,-0.03125],"type":"VEC3"},{"bufferView":25,"componentType":5126,"count":24,"max":[1,1,1],"min":[-1,-1,-1],"type":"VEC3"},{"bufferView":26,"componentType":5126,"count":24,"max":[0.53125,0.546875],"min":[0.03125,0.0625],"type":"VEC2"},{"bufferView":27,"componentType":5123,"count":36,"max":[23],"min":[0],"type":"SCALAR"},{"bufferView":28,"componentType":5126,"count":24,"max":[0.0625,0.15625,0.05624999850988388],"min":[-0.17499999701976776,0.05000000074505806,-0.05624999850988388],"type":"VEC3"},{"bufferView":29,"componentType":5126,"count":24,"max":[1,1,1],"min":[-1,-1,-1],"type":"VEC3"},{"bufferView":30,"componentType":5126,"count":24,"max":[0.5,0.484375],"min":[0,0.09375],"type":"VEC2"},{"bufferView":31,"componentType":5123,"count":36,"max":[23],"min":[0],"type":"SCALAR"},{"bufferView":32,"componentType":5126,"count":24,"max":[0.03125,0.17499999701976776,-1.214306433183765e-17],"min":[0,0.15625,-0.03750000149011612],"type":"VEC3"},{"bufferView":33,"componentType":5126,"count":24,"max":[1,1,1],"min":[-1,-1,-1],"type":"VEC3"},{"bufferView":34,"componentType":5126,"count":24,"max":[0.546875,0.546875],"min":[0.4375,0.40625],"type":"VEC2"},{"bufferView":35,"componentType":5123,"count":36,"max":[23],"min":[0],"type":"SCALAR"},{"bufferView":36,"componentType":5126,"count":24,"max":[0.03125,0.17499999701976776,0.05000000074505806],"min":[0,0.15625,0.012500000186264515],"type":"VEC3"},{"bufferView":37,"componentType":5126,"count":24,"max":[1,1,1],"min":[-1,-1,-1],"type":"VEC3"},{"bufferView":38,"componentType":5126,"count":24,"max":[0.578125,0.578125],"min":[0,0],"type":"VEC2"},{"bufferView":39,"componentType":5123,"count":36,"max":[23],"min":[0],"type":"SCALAR"},{"bufferView":40,"componentType":5126,"count":24,"max":[0.06764692068099976,0.0325959250330925,0.01875000074505806],"min":[-0.06360307335853577,-0.004904074594378471,-0.01875000074505806],"type":"VEC3"},{"bufferView":41,"componentType":5126,"count":24,"max":[1,1,1],"min":[-1,-1,-1],"type":"VEC3"},{"bufferView":42,"componentType":5126,"count":24,"max":[0.5625,0.546875],"min":[0.1875,0.125],"type":"VEC2"},{"bufferView":43,"componentType":5123,"count":36,"max":[23],"min":[0],"type":"SCALAR"},{"bufferView":44,"componentType":5126,"count":24,"max":[0.06437285989522934,0.014258124865591526,0.01875000074505806],"min":[-0.06062714383006096,-0.04199187457561493,-0.01875000074505806],"type":"VEC3"},{"bufferView":45,"componentType":5126,"count":24,"max":[1,1,1],"min":[-1,-1,-1],"type":"VEC3"},{"bufferView":46,"componentType":5126,"count":24,"max":[0.5625,0.5625],"min":[0.3125,0.21875],"type":"VEC2"},{"bufferView":47,"componentType":5123,"count":36,"max":[23],"min":[0],"type":"SCALAR"},{"bufferView":48,"componentType":5126,"count":24,"max":[0,0.01875000074505806,0.03750000149011612],"min":[-0.10625000298023224,-0.01875000074505806,2.7755575615628914e-17],"type":"VEC3"},{"bufferView":49,"componentType":5126,"count":24,"max":[1,1,1],"min":[-1,-1,-1],"type":"VEC3"},{"bufferView":50,"componentType":5126,"count":24,"max":[0.578125,0.578125],"min":[0.0625,0.0625],"type":"VEC2"},{"bufferView":51,"componentType":5123,"count":36,"max":[23],"min":[0],"type":"SCALAR"},{"bufferView":52,"componentType":5126,"count":24,"max":[0,0.02500000037252903,0.04374999925494194],"min":[-0.10625000298023224,-0.02500000037252903,-0.0062500000931322575],"type":"VEC3"},{"bufferView":53,"componentType":5126,"count":24,"max":[1,1,1],"min":[-1,-1,-1],"type":"VEC3"},{"bufferView":54,"componentType":5126,"count":24,"max":[0.546875,0.53125],"min":[0.4375,0],"type":"VEC2"},{"bufferView":55,"componentType":5123,"count":36,"max":[23],"min":[0],"type":"SCALAR"},{"bufferView":56,"componentType":5126,"count":24,"max":[0,0.01875000074505806,-2.7755575615628914e-17],"min":[-0.10625000298023224,-0.01875000074505806,-0.03750000149011612],"type":"VEC3"},{"bufferView":57,"componentType":5126,"count":24,"max":[1,1,1],"min":[-1,-1,-1],"type":"VEC3"},{"bufferView":58,"componentType":5126,"count":24,"max":[0.578125,0.578125],"min":[0.09375,0.09375],"type":"VEC2"},{"bufferView":59,"componentType":5123,"count":36,"max":[23],"min":[0],"type":"SCALAR"},{"bufferView":60,"componentType":5126,"count":24,"max":[0,0.02500000037252903,0.0062500000931322575],"min":[-0.10625000298023224,-0.02500000037252903,-0.04374999925494194],"type":"VEC3"},{"bufferView":61,"componentType":5126,"count":24,"max":[1,1,1],"min":[-1,-1,-1],"type":"VEC3"},{"bufferView":62,"componentType":5126,"count":24,"max":[0.546875,0.53125],"min":[0.125,0.03125],"type":"VEC2"},{"bufferView":63,"componentType":5123,"count":36,"max":[23],"min":[0],"type":"SCALAR"},{"bufferView":64,"componentType":5126,"count":3,"max":[2],"min":[0],"type":"SCALAR"},{"bufferView":65,"componentType":5126,"count":3,"max":[-0.0009515519486740232,-0.021768176928162575,-0.021809693425893784,0.9995241165161133],"min":[-0.0014267617370933294,-0.021794121712446213,-0.04360900819301605,0.9988104701042175],"type":"VEC4"},{"bufferView":66,"componentType":5126,"count":3,"max":[2],"min":[0],"type":"SCALAR"},{"bufferView":67,"componentType":5126,"count":3,"max":[0.3125,0.0625,-0.0625],"min":[0.3125,0.0625,-0.0625],"type":"VEC3"},{"bufferView":68,"componentType":5126,"count":3,"max":[2],"min":[0],"type":"SCALAR"},{"bufferView":69,"componentType":5126,"count":3,"max":[0.0038016801699995995,0.08707278966903687,0.0434534028172493,0.9952465295791626],"min":[0.0038016801699995995,0.08707278966903687,0.0434534028172493,0.9952465295791626],"type":"VEC4"},{"bufferView":70,"componentType":5126,"count":3,"max":[2],"min":[0],"type":"SCALAR"},{"bufferView":71,"componentType":5126,"count":3,"max":[0,0,0.061048541218042374,1],"min":[0,0,0,0.9981347918510437],"type":"VEC4"},{"bufferView":72,"componentType":5126,"count":3,"max":[2],"min":[0],"type":"SCALAR"},{"bufferView":73,"componentType":5126,"count":3,"max":[-0.5395846366882324,0.19292066991329193,-0.012500000186264515],"min":[-0.5458346009254456,0.16167066991329193,-0.012500000186264515],"type":"VEC3"},{"bufferView":74,"componentType":5126,"count":2,"max":[0.5],"min":[0],"type":"SCALAR"},{"bufferView":75,"componentType":5126,"count":2,"max":[-0.0009515519486740232,-0.021794121712446213,-0.04360900819301605,0.9988104701042175],"min":[-0.0009515519486740232,-0.021794121712446213,-0.04360900819301605,0.9988104701042175],"type":"VEC4"},{"bufferView":76,"componentType":5126,"count":2,"max":[0.5],"min":[0],"type":"SCALAR"},{"bufferView":77,"componentType":5126,"count":2,"max":[0.3125,0.0625,-0.0625],"min":[0.3125,0.0625,-0.0625],"type":"VEC3"},{"bufferView":78,"componentType":5126,"count":2,"max":[0.5],"min":[0],"type":"SCALAR"},{"bufferView":79,"componentType":5126,"count":2,"max":[0.0038016801699995995,0.08707278966903687,0.0434534028172493,0.9952465295791626],"min":[0.0038016801699995995,0.08707278966903687,0.0434534028172493,0.9952465295791626],"type":"VEC4"},{"bufferView":80,"componentType":5126,"count":3,"max":[0.5],"min":[0],"type":"SCALAR"},{"bufferView":81,"componentType":5126,"count":3,"max":[-0.3499999940395355,0,0],"min":[-0.375,0,-0.012500000186264515],"type":"VEC3"},{"bufferView":82,"componentType":5126,"count":3,"max":[0.5],"min":[0],"type":"SCALAR"},{"bufferView":83,"componentType":5126,"count":3,"max":[0,0,0,1],"min":[0,0,-0.04361938685178757,0.9990482330322266],"type":"VEC4"},{"bufferView":84,"componentType":5126,"count":3,"max":[0.5],"min":[0],"type":"SCALAR"},{"bufferView":85,"componentType":5126,"count":3,"max":[-0.5083346366882324,0.19292066991329193,-0.012500000186264515],"min":[-0.5395846366882324,0.19292066991329193,-0.03125],"type":"VEC3"},{"bufferView":86,"componentType":5126,"count":3,"max":[0.5],"min":[0],"type":"SCALAR"},{"bufferView":87,"componentType":5126,"count":3,"max":[0,0,0,1],"min":[0,-0.10886687785387039,0,0.9940563440322876],"type":"VEC4"},{"bufferView":88,"componentType":5126,"count":3,"max":[0.5],"min":[0],"type":"SCALAR"},{"bufferView":89,"componentType":5126,"count":3,"max":[0,0.3826834261417389,0,0.9713420867919922],"min":[0,0.237685889005661,0,0.9238795042037964],"type":"VEC4"},{"bufferView":90,"componentType":5126,"count":3,"max":[0.5],"min":[0],"type":"SCALAR"},{"bufferView":91,"componentType":5126,"count":3,"max":[0,0.06540312618017197,0,1],"min":[0,0,0,0.9978589415550232],"type":"VEC4"},{"bufferView":92,"componentType":5126,"count":3,"max":[0.5],"min":[0],"type":"SCALAR"},{"bufferView":93,"componentType":5126,"count":3,"max":[0,-0.2164396196603775,0,0.9762960076332092],"min":[0,-0.3826834261417389,0,0.9238795042037964],"type":"VEC4"},{"bufferView":94,"componentType":5126,"count":2,"max":[0.5],"min":[0],"type":"SCALAR"},{"bufferView":95,"componentType":5126,"count":2,"max":[-0.08764222264289856,0,0.05579618364572525],"min":[-0.08764222264289856,0,0.05579618364572525],"type":"VEC3"}],"materials":[{"pbrMetallicRoughness":{"metallicFactor":0,"roughnessFactor":1,"baseColorTexture":{"index":0}},"alphaMode":"MASK","alphaCutoff":0.05,"doubleSided":true}],"textures":[{"sampler":0,"source":0,"name":"texture"}],"samplers":[{"magFilter":9728,"minFilter":9728,"wrapS":33071,"wrapT":33071}],"images":[{"mimeType":"image/png","uri":"data:image/png;base64,"}],"meshes":[{"primitives":[{"mode":4,"attributes":{"POSITION":0,"NORMAL":1,"TEXCOORD_0":2},"indices":3,"material":0}]},{"primitives":[{"mode":4,"attributes":{"POSITION":4,"NORMAL":5,"TEXCOORD_0":6},"indices":7,"material":0}]},{"primitives":[{"mode":4,"attributes":{"POSITION":8,"NORMAL":9,"TEXCOORD_0":10},"indices":11,"material":0}]},{"primitives":[{"mode":4,"attributes":{"POSITION":12,"NORMAL":13,"TEXCOORD_0":14},"indices":15,"material":0}]},{"primitives":[{"mode":4,"attributes":{"POSITION":16,"NORMAL":17,"TEXCOORD_0":18},"indices":19,"material":0}]},{"primitives":[{"mode":4,"attributes":{"POSITION":20,"NORMAL":21,"TEXCOORD_0":22},"indices":23,"material":0}]},{"primitives":[{"mode":4,"attributes":{"POSITION":24,"NORMAL":25,"TEXCOORD_0":26},"indices":27,"material":0}]},{"primitives":[{"mode":4,"attributes":{"POSITION":28,"NORMAL":29,"TEXCOORD_0":30},"indices":31,"material":0}]},{"primitives":[{"mode":4,"attributes":{"POSITION":32,"NORMAL":33,"TEXCOORD_0":34},"indices":35,"material":0}]},{"primitives":[{"mode":4,"attributes":{"POSITION":36,"NORMAL":37,"TEXCOORD_0":38},"indices":39,"material":0}]},{"primitives":[{"mode":4,"attributes":{"POSITION":40,"NORMAL":41,"TEXCOORD_0":42},"indices":43,"material":0}]},{"primitives":[{"mode":4,"attributes":{"POSITION":44,"NORMAL":45,"TEXCOORD_0":46},"indices":47,"material":0}]},{"primitives":[{"mode":4,"attributes":{"POSITION":48,"NORMAL":49,"TEXCOORD_0":50},"indices":51,"material":0}]},{"primitives":[{"mode":4,"attributes":{"POSITION":52,"NORMAL":53,"TEXCOORD_0":54},"indices":55,"material":0}]},{"primitives":[{"mode":4,"attributes":{"POSITION":56,"NORMAL":57,"TEXCOORD_0":58},"indices":59,"material":0}]},{"primitives":[{"mode":4,"attributes":{"POSITION":60,"NORMAL":61,"TEXCOORD_0":62},"indices":63,"material":0}]}],"animations":[{"name":"idle","samplers":[{"input":64,"output":65,"interpolation":"LINEAR"},{"input":66,"output":67,"interpolation":"LINEAR"},{"input":68,"output":69,"interpolation":"LINEAR"},{"input":70,"output":71,"interpolation":"LINEAR"},{"input":72,"output":73,"interpolation":"LINEAR"}],"channels":[{"sampler":0,"target":{"node":8,"path":"rotation"}},{"sampler":1,"target":{"node":8,"path":"translation"}},{"sampler":2,"target":{"node":7,"path":"rotation"}},{"sampler":3,"target":{"node":26,"path":"rotation"}},{"sampler":4,"target":{"node":26,"path":"translation"}}]},{"name":"shoot","samplers":[{"input":74,"output":75,"interpolation":"LINEAR"},{"input":76,"output":77,"interpolation":"LINEAR"},{"input":78,"output":79,"interpolation":"LINEAR"},{"input":80,"output":81,"interpolation":"LINEAR"},{"input":82,"output":83,"interpolation":"LINEAR"},{"input":84,"output":85,"interpolation":"LINEAR"},{"input":86,"output":87,"interpolation":"LINEAR"},{"input":88,"output":89,"interpolation":"LINEAR"},{"input":90,"output":91,"interpolation":"LINEAR"},{"input":92,"output":93,"interpolation":"LINEAR"},{"input":94,"output":95,"interpolation":"LINEAR"}],"channels":[{"sampler":0,"target":{"node":8,"path":"rotation"}},{"sampler":1,"target":{"node":8,"path":"translation"}},{"sampler":2,"target":{"node":7,"path":"rotation"}},{"sampler":3,"target":{"node":7,"path":"translation"}},{"sampler":4,"target":{"node":26,"path":"rotation"}},{"sampler":5,"target":{"node":26,"path":"translation"}},{"sampler":6,"target":{"node":20,"path":"rotation"}},{"sampler":7,"target":{"node":19,"path":"rotation"}},{"sampler":8,"target":{"node":25,"path":"rotation"}},{"sampler":9,"target":{"node":24,"path":"rotation"}},{"sampler":10,"target":{"node":24,"path":"translation"}}]}]}