{"asset":{"version":"2.0","generator":"Blockbench 4.12.4 glTF exporter"},"scenes":[{"nodes":[18],"name":"blockbench_export"}],"scene":0,"nodes":[{"name":"58e2770e-d60c-8f40-a392-ee812820588b"},{"translation":[-0.0625,-0.0625,0],"name":"cube","mesh":0},{"name":"cube","mesh":1},{"name":"cube","mesh":2},{"name":"cube","mesh":3},{"translation":[-0.0625,-0.0625,0],"name":"cube","mesh":4},{"translation":[-0.375,0,0],"name":"arm2","children":[5]},{"translation":[-0.375,0,0],"name":"subarm","children":[3,4,6]},{"translation":[0.0625,0.0625,0],"name":"arm","children":[1,2,7]},{"translation":[-0.75,0.20625,-0.05],"name":"cube","mesh":5},{"translation":[-0.75,0.20625,0.05],"name":"cube","mesh":6},{"rotation":[-0.13052619222005157,0,0,0.9914448613738104],"translation":[-0.75,0.28102952079578714,0.05085185435546691],"name":"cube","mesh":7},{"translation":[-0.75,0,0],"name":"cube","mesh":8},{"rotation":[0.13052619222005157,0,0,0.9914448613738104],"translation":[-0.75,0.28102952079578714,-0.05085185435546691],"name":"cube","mesh":9},{"rotation":[0.13052619222005157,0,0,0.9914448613738104],"translation":[-0.75,0.18253529415244724,0.042763759196013135],"name":"cube","mesh":10},{"rotation":[-0.13052619222005157,0,0,0.9914448613738104],"translation":[-0.75,0.18253529415244724,-0.042763759196013135],"name":"cube","mesh":11},{"name":"wrench","children":[9,10,11,12,13,14,15]},{"name":"all","children":[8,16]},{"children":[0,17]}],"bufferViews":[{"buffer":0,"byteOffset":0,"byteLength":288,"target":34962,"byteStride":12},{"buffer":0,"byteOffset":288,"byteLength":288,"target":34962,"byteStride":12},{"buffer":0,"byteOffset":576,"byteLength":192,"target":34962,"byteStride":8},{"buffer":0,"byteOffset":768,"byteLength":72,"target":34963},{"buffer":0,"byteOffset":840,"byteLength":288,"target":34962,"byteStride":12},{"buffer":0,"byteOffset":1128,"byteLength":288,"target":34962,"byteStride":12},{"buffer":0,"byteOffset":1416,"byteLength":192,"target":34962,"byteStride":8},{"buffer":0,"byteOffset":1608,"byteLength":72,"target":34963},{"buffer":0,"byteOffset":1680,"byteLength":288,"target":34962,"byteStride":12},{"buffer":0,"byteOffset":1968,"byteLength":288,"target":34962,"byteStride":12},{"buffer":0,"byteOffset":2256,"byteLength":192,"target":34962,"byteStride":8},{"buffer":0,"byteOffset":2448,"byteLength":72,"target":34963},{"buffer":0,"byteOffset":2520,"byteLength":288,"target":34962,"byteStride":12},{"buffer":0,"byteOffset":2808,"byteLength":288,"target":34962,"byteStride":12},{"buffer":0,"byteOffset":3096,"byteLength":192,"target":34962,"byteStride":8},{"buffer":0,"byteOffset":3288,"byteLength":72,"target":34963},{"buffer":0,"byteOffset":3360,"byteLength":288,"target":34962,"byteStride":12},{"buffer":0,"byteOffset":3648,"byteLength":288,"target":34962,"byteStride":12},{"buffer":0,"byteOffset":3936,"byteLength":192,"target":34962,"byteStride":8},{"buffer":0,"byteOffset":4128,"byteLength":72,"target":34963},{"buffer":0,"byteOffset":4200,"byteLength":288,"target":34962,"byteStride":12},{"buffer":0,"byteOffset":4488,"byteLength":288,"target":34962,"byteStride":12},{"buffer":0,"byteOffset":4776,"byteLength":192,"target":34962,"byteStride":8},{"buffer":0,"byteOffset":4968,"byteLength":72,"target":34963},{"buffer":0,"byteOffset":5040,"byteLength":288,"target":34962,"byteStride":12},{"buffer":0,"byteOffset":5328,"byteLength":288,"target":34962,"byteStride":12},{"buffer":0,"byteOffset":5616,"byteLength":192,"target":34962,"byteStride":8},{"buffer":0,"byteOffset":5808,"byteLength":72,"target":34963},{"buffer":0,"byteOffset":5880,"byteLength":288,"target":34962,"byteStride":12},{"buffer":0,"byteOffset":6168,"byteLength":288,"target":34962,"byteStride":12},{"buffer":0,"byteOffset":6456,"byteLength":192,"target":34962,"byteStride":8},{"buffer":0,"byteOffset":6648,"byteLength":72,"target":34963},{"buffer":0,"byteOffset":6720,"byteLength":288,"target":34962,"byteStride":12},{"buffer":0,"byteOffset":7008,"byteLength":288,"target":34962,"byteStride":12},{"buffer":0,"byteOffset":7296,"byteLength":192,"target":34962,"byteStride":8},{"buffer":0,"byteOffset":7488,"byteLength":72,"target":34963},{"buffer":0,"byteOffset":7560,"byteLength":288,"target":34962,"byteStride":12},{"buffer":0,"byteOffset":7848,"byteLength":288,"target":34962,"byteStride":12},{"buffer":0,"byteOffset":8136,"byteLength":192,"target":34962,"byteStride":8},{"buffer":0,"byteOffset":8328,"byteLength":72,"target":34963},{"buffer":0,"byteOffset":8400,"byteLength":288,"target":34962,"byteStride":12},{"buffer":0,"byteOffset":8688,"byteLength":288,"target":34962,"byteStride":12},{"buffer":0,"byteOffset":8976,"byteLength":192,"target":34962,"byteStride":8},{"buffer":0,"byteOffset":9168,"byteLength":72,"target":34963},{"buffer":0,"byteOffset":9240,"byteLength":288,"target":34962,"byteStride":12},{"buffer":0,"byteOffset":9528,"byteLength":288,"target":34962,"byteStride":12},{"buffer":0,"byteOffset":9816,"byteLength":192,"target":34962,"byteStride":8},{"buffer":0,"byteOffset":10008,"byteLength":72,"target":34963},{"buffer":0,"byteOffset":10080,"byteLength":12},{"buffer":0,"byteOffset":10092,"byteLength":48},{"buffer":0,"byteOffset":10140,"byteLength":12},{"buffer":0,"byteOffset":10152,"byteLength":36},{"buffer":0,"byteOffset":10188,"byteLength":12},{"buffer":0,"byteOffset":10200,"byteLength":48},{"buffer":0,"byteOffset":10248,"byteLength":12},{"buffer":0,"byteOffset":10260,"byteLength":36},{"buffer":0,"byteOffset":10296,"byteLength":8},{"buffer":0,"byteOffset":10304,"byteLength":32},{"buffer":0,"byteOffset":10336,"byteLength":8},{"buffer":0,"byteOffset":10344,"byteLength":24},{"buffer":0,"byteOffset":10368,"byteLength":8},{"buffer":0,"byteOffset":10376,"byteLength":32},{"buffer":0,"byteOffset":10408,"byteLength":12},{"buffer":0,"byteOffset":10420,"byteLength":36},{"buffer":0,"byteOffset":10456,"byteLength":4},{"buffer":0,"byteOffset":10460,"byteLength":12}],"buffers":[{"byteLength":10472,"uri":"data:application/octet-stream;base64,"}],"accessors":[{"bufferView":0,"componentType":5126,"count":24,"max":[0.0625,0.125,0.0625],"min":[-0.3125,0,-0.0625],"type":"VEC3"},{"bufferView":1,"componentType":5126,"count":24,"max":[1,1,1],"min":[-1,-1,-1],"type":"VEC3"},{"bufferView":2,"componentType":5126,"count":24,"max":[0.4375,0.4375],"min":[0,0],"type":"VEC2"},{"bufferView":3,"componentType":5123,"count":36,"max":[23],"min":[0],"type":"SCALAR"},{"bufferView":4,"componentType":5126,"count":24,"max":[-0.3125,0.07500000298023224,0.07500000298023224],"min":[-0.4375,-0.07500000298023224,-0.07500000298023224],"type":"VEC3"},{"bufferView":5,"componentType":5126,"count":24,"max":[1,1,1],"min":[-1,-1,-1],"type":"VEC3"},{"bufferView":6,"componentType":5126,"count":24,"max":[0.40625,0.421875],"min":[0,0.21875],"type":"VEC2"},{"bufferView":7,"componentType":5123,"count":36,"max":[23],"min":[0],"type":"SCALAR"},{"bufferView":8,"componentType":5126,"count":24,"max":[0,0.0625,0.0625],"min":[-0.3125,-0.0625,-0.0625],"type":"VEC3"},{"bufferView":9,"componentType":5126,"count":24,"max":[1,1,1],"min":[-1,-1,-1],"type":"VEC3"},{"bufferView":10,"componentType":5126,"count":24,"max":[0.34375,0.46875],"min":[0,0],"type":"VEC2"},{"bufferView":11,"componentType":5123,"count":36,"max":[23],"min":[0],"type":"SCALAR"},{"bufferView":12,"componentType":5126,"count":24,"max":[-0.3125,0.07500000298023224,0.07500000298023224],"min":[-0.375,-0.07500000298023224,-0.07500000298023224],"type":"VEC3"},{"bufferView":13,"componentType":5126,"count":24,"max":[1,1,1],"min":[-1,-1,-1],"type":"VEC3"},{"bufferView":14,"componentType":5126,"count":24,"max":[0.46875,0.546875],"min":[0,0],"type":"VEC2"},{"bufferView":15,"componentType":5123,"count":36,"max":[23],"min":[0],"type":"SCALAR"},{"bufferView":16,"componentType":5126,"count":24,"max":[0.0625,0.125,0.0625],"min":[-0.0625,0,-0.0625],"type":"VEC3"},{"bufferView":17,"componentType":5126,"count":24,"max":[1,1,1],"min":[-1,-1,-1],"type":"VEC3"},{"bufferView":18,"componentType":5126,"count":24,"max":[0.5,0.5],"min":[0.125,0],"type":"VEC2"},{"bufferView":19,"componentType":5123,"count":36,"max":[23],"min":[0],"type":"SCALAR"},{"bufferView":20,"componentType":5126,"count":24,"max":[0.02500000037252903,0.08124999701976776,0.02500000037252903],"min":[-0.02500000037252903,0,-0.02500000037252903],"type":"VEC3"},{"bufferView":21,"componentType":5126,"count":24,"max":[1,1,1],"min":[-1,-1,-1],"type":"VEC3"},{"bufferView":22,"componentType":5126,"count":24,"max":[0.375,0.625],"min":[0,0.3125],"type":"VEC2"},{"bufferView":23,"componentType":5123,"count":36,"max":[23],"min":[0],"type":"SCALAR"},{"bufferView":24,"componentType":5126,"count":24,"max":[0.02500000037252903,0.08124999701976776,0.02500000037252903],"min":[-0.02500000037252903,0,-0.02500000037252903],"type":"VEC3"},{"bufferView":25,"componentType":5126,"count":24,"max":[1,1,1],"min":[-1,-1,-1],"type":"VEC3"},{"bufferView":26,"componentType":5126,"count":24,"max":[0.75,0.3125],"min":[0.375,0],"type":"VEC2"},{"bufferView":27,"componentType":5123,"count":36,"max":[23],"min":[0],"type":"SCALAR"},{"bufferView":28,"componentType":5126,"count":24,"max":[0.01875000074505806,0.03125,0.02500000037252903],"min":[-0.01875000074505806,0,-0.02500000037252903],"type":"VEC3"},{"bufferView":29,"componentType":5126,"count":24,"max":[1,1,1],"min":[-1,-1,-1],"type":"VEC3"},{"bufferView":30,"componentType":5126,"count":24,"max":[0.75,0.625],"min":[0.375,0.3125],"type":"VEC2"},{"bufferView":31,"componentType":5123,"count":36,"max":[23],"min":[0],"type":"SCALAR"},{"bufferView":32,"componentType":5126,"count":24,"max":[0.02500000037252903,0.24375000596046448,0.02500000037252903],"min":[-0.02500000037252903,0,-0.02500000037252903],"type":"VEC3"},{"bufferView":33,"componentType":5126,"count":24,"max":[1,1,1],"min":[-1,-1,-1],"type":"VEC3"},{"bufferView":34,"componentType":5126,"count":24,"max":[0.9375,0.625],"min":[0.8125,0],"type":"VEC2"},{"bufferView":35,"componentType":5123,"count":36,"max":[23],"min":[0],"type":"SCALAR"},{"bufferView":36,"componentType":5126,"count":24,"max":[0.01875000074505806,0.03125,0.02500000037252903],"min":[-0.01875000074505806,0,-0.02500000037252903],"type":"VEC3"},{"bufferView":37,"componentType":5126,"count":24,"max":[1,1,1],"min":[-1,-1,-1],"type":"VEC3"},{"bufferView":38,"componentType":5126,"count":24,"max":[0.375,0.3125],"min":[0,0],"type":"VEC2"},{"bufferView":39,"componentType":5123,"count":36,"max":[23],"min":[0],"type":"SCALAR"},{"bufferView":40,"componentType":5126,"count":24,"max":[0.01875000074505806,0.03125,0.02500000037252903],"min":[-0.01875000074505806,0.012500000186264515,-0.02500000037252903],"type":"VEC3"},{"bufferView":41,"componentType":5126,"count":24,"max":[1,1,1],"min":[-1,-1,-1],"type":"VEC3"},{"bufferView":42,"componentType":5126,"count":24,"max":[0.375,0.9375],"min":[0,0.625],"type":"VEC2"},{"bufferView":43,"componentType":5123,"count":36,"max":[23],"min":[0],"type":"SCALAR"},{"bufferView":44,"componentType":5126,"count":24,"max":[0.01875000074505806,0.03125,0.02500000037252903],"min":[-0.01875000074505806,0.012500000186264515,-0.02500000037252903],"type":"VEC3"},{"bufferView":45,"componentType":5126,"count":24,"max":[1,1,1],"min":[-1,-1,-1],"type":"VEC3"},{"bufferView":46,"componentType":5126,"count":24,"max":[0.75,0.9375],"min":[0.375,0.625],"type":"VEC2"},{"bufferView":47,"componentType":5123,"count":36,"max":[23],"min":[0],"type":"SCALAR"},{"bufferView":48,"componentType":5126,"count":3,"max":[2],"min":[0],"type":"SCALAR"},{"bufferView":49,"componentType":5126,"count":3,"max":[-0.0009515519486740232,-0.021768176928162575,-0.021809693425893784,0.9995241165161133],"min":[-0.0014267617370933294,-0.021794121712446213,-0.04360900819301605,0.9988104701042175],"type":"VEC4"},{"bufferView":50,"componentType":5126,"count":3,"max":[2],"min":[0],"type":"SCALAR"},{"bufferView":51,"componentType":5126,"count":3,"max":[0.3125,0.0625,-0.0625],"min":[0.3125,0.0625,-0.0625],"type":"VEC3"},{"bufferView":52,"componentType":5126,"count":3,"max":[2],"min":[0],"type":"SCALAR"},{"bufferView":53,"componentType":5126,"count":3,"max":[0.0038016801699995995,0.08707278966903687,0.0434534028172493,0.9952465295791626],"min":[0.0038016801699995995,0.08707278966903687,0.0434534028172493,0.9952465295791626],"type":"VEC4"},{"bufferView":54,"componentType":5126,"count":3,"max":[2],"min":[0],"type":"SCALAR"},{"bufferView":55,"componentType":5126,"count":3,"max":[0.23125000298023224,0,0],"min":[0.23125000298023224,-0.01875000074505806,0],"type":"VEC3"},{"bufferView":56,"componentType":5126,"count":2,"max":[0.5],"min":[0],"type":"SCALAR"},{"bufferView":57,"componentType":5126,"count":2,"max":[-0.0009515519486740232,-0.021794121712446213,-0.04360900819301605,0.9988104701042175],"min":[-0.0009515519486740232,-0.021794121712446213,-0.04360900819301605,0.9988104701042175],"type":"VEC4"},{"bufferView":58,"componentType":5126,"count":2,"max":[0.5],"min":[0],"type":"SCALAR"},{"bufferView":59,"componentType":5126,"count":2,"max":[0.3125,0.0625,-0.0625],"min":[0.3125,0.0625,-0.0625],"type":"VEC3"},{"bufferView":60,"componentType":5126,"count":2,"max":[0.5],"min":[0],"type":"SCALAR"},{"bufferView":61,"componentType":5126,"count":2,"max":[0.0038016801699995995,0.08707278966903687,0.0434534028172493,0.9952465295791626],"min":[0.0038016801699995995,0.08707278966903687,0.0434534028172493,0.9952465295791626],"type":"VEC4"},{"bufferView":62,"componentType":5126,"count":3,"max":[0.5],"min":[0],"type":"SCALAR"},{"bufferView":63,"componentType":5126,"count":3,"max":[-0.3499999940395355,0,0],"min":[-0.375,0,-0.012500000186264515],"type":"VEC3"},{"bufferView":64,"componentType":5126,"count":1,"max":[0],"min":[0],"type":"SCALAR"},{"bufferView":65,"componentType":5126,"count":1,"max":[0.23125000298023224,0,0],"min":[0.23125000298023224,0,0],"type":"VEC3"}],"materials":[{"pbrMetallicRoughness":{"metallicFactor":0,"roughnessFactor":1,"baseColorTexture":{"index":0}},"alphaMode":"MASK","alphaCutoff":0.05,"doubleSided":true},{"pbrMetallicRoughness":{"metallicFactor":0,"roughnessFactor":1,"baseColorTexture":{"index":1}},"alphaMode":"MASK","alphaCutoff":0.05,"doubleSided":true}],"textures":[{"sampler":0,"source":0,"name":"player.png"},{"sampler":1,"source":1,"name":"wrench"}],"samplers":[{"magFilter":9728,"minFilter":9728,"wrapS":33071,"wrapT":33071},{"magFilter":9728,"minFilter":9728,"wrapS":33071,"wrapT":33071}],"images":[{"mimeType":"image/png","uri":"data:image/png;base64,"},{"mimeType":"image/png","uri":"data:image/png;base64,"}],"meshes":[{"primitives":[{"mode":4,"attributes":{"POSITION":0,"NORMAL":1,"TEXCOORD_0":2},"indices":3,"material":0}]},{"primitives":[{"mode":4,"attributes":{"POSITION":4,"NORMAL":5,"TEXCOORD_0":6},"indices":7,"material":0}]},{"primitives":[{"mode":4,"attributes":{"POSITION":8,"NORMAL":9,"TEXCOORD_0":10},"indices":11,"material":0}]},{"primitives":[{"mode":4,"attributes":{"POSITION":12,"NORMAL":13,"TEXCOORD_0":14},"indices":15,"material":0}]},{"primitives":[{"mode":4,"attributes":{"POSITION":16,"NORMAL":17,"TEXCOORD_0":18},"indices":19,"material":0}]},{"primitives":[{"mode":4,"attributes":{"POSITION":20,"NORMAL":21,"TEXCOORD_0":22},"indices":23,"material":1}]},{"primitives":[{"mode":4,"attributes":{"POSITION":24,"NORMAL":25,"TEXCOORD_0":26},"indices":27,"material":1}]},{"primitives":[{"mode":4,"attributes":{"POSITION":28,"NORMAL":29,"TEXCOORD_0":30},"indices":31,"material":1}]},{"primitives":[{"mode":4,"attributes":{"POSITION":32,"NORMAL":33,"TEXCOORD_0":34},"indices":35,"material":1}]},{"primitives":[{"mode":4,"attributes":{"POSITION":36,"NORMAL":37,"TEXCOORD_0":38},"indices":39,"material":1}]},{"primitives":[{"mode":4,"attributes":{"POSITION":40,"NORMAL":41,"TEXCOORD_0":42},"indices":43,"material":1}]},{"primitives":[{"mode":4,"attributes":{"POSITION":44,"NORMAL":45,"TEXCOORD_0":46},"indices":47,"material":1}]}],"animations":[{"name":"idle","samplers":[{"input":48,"output":49,"interpolation":"LINEAR"},{"input":50,"output":51,"interpolation":"LINEAR"},{"input":52,"output":53,"interpolation":"LINEAR"},{"input":54,"output":55,"interpolation":"LINEAR"}],"channels":[{"sampler":0,"target":{"node":8,"path":"rotation"}},{"sampler":1,"target":{"node":8,"path":"translation"}},{"sampler":2,"target":{"node":7,"path":"rotation"}},{"sampler":3,"target":{"node":16,"path":"translation"}}]},{"name":"shoot","samplers":[{"input":56,"output":57,"interpolation":"LINEAR"},{"input":58,"output":59,"interpolation":"LINEAR"},{"input":60,"output":61,"interpolation":"LINEAR"},{"input":62,"output":63,"interpolation":"LINEAR"},{"input":64,"output":65,"interpolation":"LINEAR"}],"channels":[{"sampler":0,"target":{"node":8,"path":"rotation"}},{"sampler":1,"target":{"node":8,"path":"translation"}},{"sampler":2,"target":{"node":7,"path":"rotation"}},{"sampler":3,"target":{"node":7,"path":"translation"}},{"sampler":4,"target":{"node":16,"path":"translation"}}]}]}