{"asset":{"version":"2.0","generator":"Blockbench 4.12.4 glTF exporter"},"scenes":[{"nodes":[26],"name":"blockbench_export"}],"scene":0,"nodes":[{"translation":[-0.375,0,0],"name":"8421589e-f416-1bc7-b5bf-7b0f6ad0bf82"},{"translation":[-0.375,0,0],"name":"0a1b334d-0819-a007-9d5b-cc04626bc704","children":[0]},{"translation":[0.0625,0.0625,0],"name":"d3c340d1-b13a-b41e-dc23-17e4bf9e4630","children":[1]},{"rotation":[0,0.3826834323650898,0,0.9238795325112867],"translation":[-0.09389249999999993,0,-0.04954625],"name":"62223b7d-bc7a-6340-1681-1f1ca71e6245"},{"translation":[-0.08816374999999999,0.044579375000000004,-0.057285],"name":"c32c0139-504c-81f3-b8f2-dabe02423d9e","children":[3]},{"rotation":[0,-0.3826834323650898,0,0.9238795325112867],"translation":[-0.08764249999999996,0,0.05579624999999999],"name":"ef257933-da8f-e5c0-97ee-ee048256a137"},{"translation":[-0.08816374999999999,0.044579375000000004,0.057285],"name":"738b4fca-2fd2-63df-f06c-61d78e018182","children":[5]},{"translation":[-0.814584375,0.167920625,0],"name":"6c763baf-dd59-f3f6-ae39-bf27ce3429ff","children":[4,6]},{"name":"5e2cd0f5-43c9-d097-20cf-98b7612bb005","children":[2,7]},{"translation":[0,-0.03125,-0.1875],"name":"cube","mesh":0},{"rotation":[-0.33791671800332695,0,0,0.9411760152563706],"translation":[0,0.006249999999999978,-0.012500000000000178],"name":"cube","mesh":1},{"translation":[0,0,-0.375],"name":"head","children":[10]},{"translation":[-0.05625000000000002,-0.028124999999999983,0.012500000000000067],"name":"cube","mesh":2},{"translation":[-0.08124999999999999,-0.07187499999999997,-0.17500000000000004],"name":"fin","children":[12]},{"rotation":[-0.043619387365336,0,0,0.9990482215818578],"translation":[0,-0.031249999999999556,0.028124999999999845],"name":"cube","mesh":3},{"translation":[0,0.1875,-0.125],"name":"dorcal","children":[14]},{"translation":[0.05625000000000002,-0.028124999999999983,0.012500000000000067],"name":"cube","mesh":4},{"translation":[0.08124999999999999,-0.07187499999999997,-0.17500000000000004],"name":"fin2","children":[16]},{"translation":[0,0.34375,-0.25],"name":"body1","children":[9,11,13,15,17]},{"translation":[0,-0.03125,0.1875],"name":"cube","mesh":5},{"translation":[0,-0.03125,0.1875],"name":"cube","mesh":6},{"translation":[0,-0.03125,0.0625],"name":"cube","mesh":7},{"translation":[0,0,0.23750000000000004],"name":"tail2","children":[21]},{"translation":[0,0,0.375],"name":"tail","children":[20,22]},{"translation":[0,0.34375,-0.25],"name":"body2","children":[19,23]},{"translation":[0,0,0.1875],"name":"all","children":[18,24]},{"children":[8,25]}],"bufferViews":[{"buffer":0,"byteOffset":0,"byteLength":288,"target":34962,"byteStride":12},{"buffer":0,"byteOffset":288,"byteLength":288,"target":34962,"byteStride":12},{"buffer":0,"byteOffset":576,"byteLength":192,"target":34962,"byteStride":8},{"buffer":0,"byteOffset":768,"byteLength":72,"target":34963},{"buffer":0,"byteOffset":840,"byteLength":288,"target":34962,"byteStride":12},{"buffer":0,"byteOffset":1128,"byteLength":288,"target":34962,"byteStride":12},{"buffer":0,"byteOffset":1416,"byteLength":192,"target":34962,"byteStride":8},{"buffer":0,"byteOffset":1608,"byteLength":72,"target":34963},{"buffer":0,"byteOffset":1680,"byteLength":288,"target":34962,"byteStride":12},{"buffer":0,"byteOffset":1968,"byteLength":288,"target":34962,"byteStride":12},{"buffer":0,"byteOffset":2256,"byteLength":192,"target":34962,"byteStride":8},{"buffer":0,"byteOffset":2448,"byteLength":72,"target":34963},{"buffer":0,"byteOffset":2520,"byteLength":288,"target":34962,"byteStride":12},{"buffer":0,"byteOffset":2808,"byteLength":288,"target":34962,"byteStride":12},{"buffer":0,"byteOffset":3096,"byteLength":192,"target":34962,"byteStride":8},{"buffer":0,"byteOffset":3288,"byteLength":72,"target":34963},{"buffer":0,"byteOffset":3360,"byteLength":288,"target":34962,"byteStride":12},{"buffer":0,"byteOffset":3648,"byteLength":288,"target":34962,"byteStride":12},{"buffer":0,"byteOffset":3936,"byteLength":192,"target":34962,"byteStride":8},{"buffer":0,"byteOffset":4128,"byteLength":72,"target":34963},{"buffer":0,"byteOffset":4200,"byteLength":288,"target":34962,"byteStride":12},{"buffer":0,"byteOffset":4488,"byteLength":288,"target":34962,"byteStride":12},{"buffer":0,"byteOffset":4776,"byteLength":192,"target":34962,"byteStride":8},{"buffer":0,"byteOffset":4968,"byteLength":72,"target":34963},{"buffer":0,"byteOffset":5040,"byteLength":288,"target":34962,"byteStride":12},{"buffer":0,"byteOffset":5328,"byteLength":288,"target":34962,"byteStride":12},{"buffer":0,"byteOffset":5616,"byteLength":192,"target":34962,"byteStride":8},{"buffer":0,"byteOffset":5808,"byteLength":72,"target":34963},{"buffer":0,"byteOffset":5880,"byteLength":288,"target":34962,"byteStride":12},{"buffer":0,"byteOffset":6168,"byteLength":288,"target":34962,"byteStride":12},{"buffer":0,"byteOffset":6456,"byteLength":192,"target":34962,"byteStride":8},{"buffer":0,"byteOffset":6648,"byteLength":72,"target":34963},{"buffer":0,"byteOffset":6720,"byteLength":12},{"buffer":0,"byteOffset":6732,"byteLength":48},{"buffer":0,"byteOffset":6780,"byteLength":12},{"buffer":0,"byteOffset":6792,"byteLength":48},{"buffer":0,"byteOffset":6840,"byteLength":12},{"buffer":0,"byteOffset":6852,"byteLength":48},{"buffer":0,"byteOffset":6900,"byteLength":12},{"buffer":0,"byteOffset":6912,"byteLength":48},{"buffer":0,"byteOffset":6960,"byteLength":12},{"buffer":0,"byteOffset":6972,"byteLength":48}],"buffers":[{"byteLength":7020,"uri":"data:application/octet-stream;base64,"}],"accessors":[{"bufferView":0,"componentType":5126,"count":24,"max":[0.08124999701976776,0.14374999701976776,0.1875],"min":[-0.08124999701976776,-0.08124999701976776,-0.1875],"type":"VEC3"},{"bufferView":1,"componentType":5126,"count":24,"max":[1,1,1],"min":[-1,-1,-1],"type":"VEC3"},{"bufferView":2,"componentType":5126,"count":24,"max":[0.453125,0.578125],"min":[0,0],"type":"VEC2"},{"bufferView":3,"componentType":5123,"count":36,"max":[23],"min":[0],"type":"SCALAR"},{"bufferView":4,"componentType":5126,"count":24,"max":[0.0625,0.08124999701976776,0.07500000298023224],"min":[-0.0625,-0.09375,-0.09375],"type":"VEC3"},{"bufferView":5,"componentType":5126,"count":24,"max":[1,1,1],"min":[-1,-1,-1],"type":"VEC3"},{"bufferView":6,"componentType":5126,"count":24,"max":[0.59375,0.640625],"min":[0.09375,0.28125],"type":"VEC2"},{"bufferView":7,"componentType":5123,"count":36,"max":[23],"min":[0],"type":"SCALAR"},{"bufferView":8,"componentType":5126,"count":24,"max":[0.0625,0.05624999850988388,0.07500000298023224],"min":[-0.16249999403953552,-2.7755575615628914e-17,-0.10000000149011612],"type":"VEC3"},{"bufferView":9,"componentType":5126,"count":24,"max":[1,1,1],"min":[-1,-1,-1],"type":"VEC3"},{"bufferView":10,"componentType":5126,"count":24,"max":[0.6875,0.59375],"min":[0.4375,0],"type":"VEC2"},{"bufferView":11,"componentType":5123,"count":36,"max":[23],"min":[0],"type":"SCALAR"},{"bufferView":12,"componentType":5126,"count":24,"max":[0.01875000074505806,0.07500000298023224,0.22187499701976776],"min":[-0.01875000074505806,-0.06875000149011612,-0.06562499701976776],"type":"VEC3"},{"bufferView":13,"componentType":5126,"count":24,"max":[1,1,1],"min":[-1,-1,-1],"type":"VEC3"},{"bufferView":14,"componentType":5126,"count":24,"max":[0.609375,0.734375],"min":[0,0.34375],"type":"VEC2"},{"bufferView":15,"componentType":5123,"count":36,"max":[23],"min":[0],"type":"SCALAR"},{"bufferView":16,"componentType":5126,"count":24,"max":[0.16249999403953552,0.05624999850988388,0.07500000298023224],"min":[-0.0625,-2.7755575615628914e-17,-0.10000000149011612],"type":"VEC3"},{"bufferView":17,"componentType":5126,"count":24,"max":[1,1,1],"min":[-1,-1,-1],"type":"VEC3"},{"bufferView":18,"componentType":5126,"count":24,"max":[0.6875,0.59375],"min":[0.4375,0],"type":"VEC2"},{"bufferView":19,"componentType":5123,"count":36,"max":[23],"min":[0],"type":"SCALAR"},{"bufferView":20,"componentType":5126,"count":24,"max":[0.08124999701976776,0.14374999701976776,0.1875],"min":[-0.08124999701976776,-0.08124999701976776,-0.1875],"type":"VEC3"},{"bufferView":21,"componentType":5126,"count":24,"max":[1,1,1],"min":[-1,-1,-1],"type":"VEC3"},{"bufferView":22,"componentType":5126,"count":24,"max":[0.546875,0.640625],"min":[0,0],"type":"VEC2"},{"bufferView":23,"componentType":5123,"count":36,"max":[23],"min":[0],"type":"SCALAR"},{"bufferView":24,"componentType":5126,"count":24,"max":[0.04374999925494194,0.11249999701976776,0.05000000074505806],"min":[-0.04374999925494194,-0.05000000074505806,-0.1875],"type":"VEC3"},{"bufferView":25,"componentType":5126,"count":24,"max":[1,1,1],"min":[-1,-1,-1],"type":"VEC3"},{"bufferView":26,"componentType":5126,"count":24,"max":[0.609375,0.640625],"min":[0.15625,0],"type":"VEC2"},{"bufferView":27,"componentType":5123,"count":36,"max":[23],"min":[0],"type":"SCALAR"},{"bufferView":28,"componentType":5126,"count":24,"max":[0.01875000074505806,0.21250000596046448,0.05000000074505806],"min":[-0.01875000074505806,-0.15000000596046448,-0.0625],"type":"VEC3"},{"bufferView":29,"componentType":5126,"count":24,"max":[1,1,1],"min":[-1,-1,-1],"type":"VEC3"},{"bufferView":30,"componentType":5126,"count":24,"max":[0.578125,0.78125],"min":[0.375,0],"type":"VEC2"},{"bufferView":31,"componentType":5123,"count":36,"max":[23],"min":[0],"type":"SCALAR"},{"bufferView":32,"componentType":5126,"count":3,"max":[1],"min":[0],"type":"SCALAR"},{"bufferView":33,"componentType":5126,"count":3,"max":[0,0.06540312618017197,0,0.9978589415550232],"min":[0,-0.08715574443340302,0,0.9961947202682495],"type":"VEC4"},{"bufferView":34,"componentType":5126,"count":3,"max":[1],"min":[0],"type":"SCALAR"},{"bufferView":35,"componentType":5126,"count":3,"max":[0,0.10886687785387039,0,0.9978589415550232],"min":[0,-0.06540312618017197,0,0.9940563440322876],"type":"VEC4"},{"bufferView":36,"componentType":5126,"count":3,"max":[1],"min":[0],"type":"SCALAR"},{"bufferView":37,"componentType":5126,"count":3,"max":[0,0.08715574443340302,0,0.9961947202682495],"min":[0,-0.10886687785387039,0,0.9940563440322876],"type":"VEC4"},{"bufferView":38,"componentType":5126,"count":3,"max":[1],"min":[0],"type":"SCALAR"},{"bufferView":39,"componentType":5126,"count":3,"max":[0,0.2235674411058426,0.006754305213689804,0.9848077297210693],"min":[-0.014855700545012951,-0.1736481785774231,0,0.9745518565177917],"type":"VEC4"},{"bufferView":40,"componentType":5126,"count":3,"max":[1],"min":[0],"type":"SCALAR"},{"bufferView":41,"componentType":5126,"count":3,"max":[0,0.1736481785774231,0,0.9848077297210693],"min":[0,-0.258819043636322,0,0.9659258127212524],"type":"VEC4"}],"materials":[{"pbrMetallicRoughness":{"metallicFactor":0,"roughnessFactor":1,"baseColorTexture":{"index":0}},"alphaMode":"MASK","alphaCutoff":0.05,"doubleSided":true}],"textures":[{"sampler":0,"source":0,"name":"texture"}],"samplers":[{"magFilter":9728,"minFilter":9728,"wrapS":33071,"wrapT":33071}],"images":[{"mimeType":"image/png","uri":"data:image/png;base64,"}],"meshes":[{"primitives":[{"mode":4,"attributes":{"POSITION":0,"NORMAL":1,"TEXCOORD_0":2},"indices":3,"material":0}]},{"primitives":[{"mode":4,"attributes":{"POSITION":4,"NORMAL":5,"TEXCOORD_0":6},"indices":7,"material":0}]},{"primitives":[{"mode":4,"attributes":{"POSITION":8,"NORMAL":9,"TEXCOORD_0":10},"indices":11,"material":0}]},{"primitives":[{"mode":4,"attributes":{"POSITION":12,"NORMAL":13,"TEXCOORD_0":14},"indices":15,"material":0}]},{"primitives":[{"mode":4,"attributes":{"POSITION":16,"NORMAL":17,"TEXCOORD_0":18},"indices":19,"material":0}]},{"primitives":[{"mode":4,"attributes":{"POSITION":20,"NORMAL":21,"TEXCOORD_0":22},"indices":23,"material":0}]},{"primitives":[{"mode":4,"attributes":{"POSITION":24,"NORMAL":25,"TEXCOORD_0":26},"indices":27,"material":0}]},{"primitives":[{"mode":4,"attributes":{"POSITION":28,"NORMAL":29,"TEXCOORD_0":30},"indices":31,"material":0}]}],"animations":[{"name":"walk","samplers":[{"input":32,"output":33,"interpolation":"LINEAR"},{"input":34,"output":35,"interpolation":"LINEAR"},{"input":36,"output":37,"interpolation":"LINEAR"},{"input":38,"output":39,"interpolation":"LINEAR"},{"input":40,"output":41,"interpolation":"LINEAR"}],"channels":[{"sampler":0,"target":{"node":18,"path":"rotation"}},{"sampler":1,"target":{"node":11,"path":"rotation"}},{"sampler":2,"target":{"node":24,"path":"rotation"}},{"sampler":3,"target":{"node":23,"path":"rotation"}},{"sampler":4,"target":{"node":22,"path":"rotation"}}]}]}